# xmcd
#
# Track frame offsets:
#	150
#	12968
#	21719
#	31809
#	42214
#	56022
#	66347
#	76658
#	86680
#	95726
#	107844
#	116313
#	127859
#	141808
#	152990
#	162326
#	176008
#	188705
#
# Disc length: 2715 seconds
#
# Revision: 0
# Processed by: cddbd v1.4PL0 Copyright (c) Steve Scherf et al.
# Submitted via: dBpowerAMP V4.0
#
DISCID=ec0a9912
DTITLE=Willie Nelson - Willie Nelson 18 tracks
DYEAR=1900
DGENRE=
TTITLE0=I just don't understand
TTITLE1=Why are you picking on me
TTITLE2=Healing hands of time
TTITLE3=I feel sorry for him
TTITLE4=Home is where you're happy
TTITLE5=Pride wins again
TTITLE6=Broken promise
TTITLE7=New way to cry
TTITLE8=Waiting time
TTITLE9=Happiness lives next door
TTITLE10=Slow down old world
TTITLE11=I'm gonna lose a lot of teadrops
TTITLE12=No tomorrow in sight
TTITLE13=Go away
TTITLE14=Right from wrong
TTITLE15=You'll always have someone
TTITLE16=Any old arms won't do
TTITLE17=And so will you my love
EXTD=
EXTT0=
EXTT1=
EXTT2=
EXTT3=
EXTT4=
EXTT5=
EXTT6=
EXTT7=
EXTT8=
EXTT9=
EXTT10=
EXTT11=
EXTT12=
EXTT13=
EXTT14=
EXTT15=
EXTT16=
EXTT17=
PLAYORDER=
